<svg width="68" height="65" xmlns="http://www.w3.org/2000/svg"><defs><filter x="-15.4%" y="-15.4%" width="130.8%" height="130.8%" filterUnits="objectBoundingBox" id="a"><feOffset dy="2" in="SourceAlpha" result="shadowOffsetOuter1"/><feColorMatrix values="0 0 0 0 0 0 0 0 0 0 0 0 0 0 0 0 0 0 0.22503278 0" in="shadowOffsetOuter1" result="shadowMatrixOuter1"/><feMerge><feMergeNode in="shadowMatrixOuter1"/><feMergeNode in="SourceGraphic"/></feMerge></filter></defs><g transform="translate(0 3)" fill="none" fill-rule="evenodd"><ellipse fill="#000" opacity=".1" cx="33.792" cy="58.534" rx="33.792" ry="2.534"/><path fill="#C8A281" d="M6 10h55.194v48.435H6z"/><path fill="#000" opacity=".2" d="M6.253 10.253h55.194V23.77H6.253z"/><path fill="#C8A281" d="M4 8h59.699v11.264H4z"/><path fill="#FFF" opacity=".2" d="M27.091 8h13.517v27.597H27.091z"/><path d="M53.292 52.436c-2.444 1.272-5.447.32-6.73-2.132a5.008 5.008 0 01-.329-3.814 4.958 4.958 0 012.458-2.917c2.449-1.286 5.468-.334 6.754 2.131a5.013 5.013 0 01.317 3.82 4.962 4.962 0 01-2.47 2.912z" fill="#1577BD"/><path d="M48.785 49a.688.688 0 00.508-.199c.133-.132.213-.324.24-.577h-.411a.55.55 0 01-.104.282.283.283 0 01-.236.104.262.262 0 01-.168-.055.39.39 0 01-.11-.141.744.744 0 01-.059-.193 1.254 1.254 0 010-.425.727.727 0 01.062-.199.43.43 0 01.113-.147.26.26 0 01.171-.057c.182 0 .288.11.316.328h.418a.84.84 0 00-.072-.318.665.665 0 00-.392-.358.81.81 0 00-.604.032.73.73 0 00-.25.215.987.987 0 00-.154.327 1.526 1.526 0 00-.053.41c0 .143.019.273.057.392a.958.958 0 00.16.307.718.718 0 00.568.272zm1.744 0a.773.773 0 00.333-.07.71.71 0 00.254-.2.938.938 0 00.162-.315c.038-.122.057-.26.057-.411 0-.152-.019-.29-.057-.414a.936.936 0 00-.162-.316.73.73 0 00-.587-.274.734.734 0 00-.583.274.936.936 0 00-.163.316 1.403 1.403 0 00-.057.414c0 .152.02.289.057.411a.938.938 0 00.163.315.715.715 0 00.583.27zm0-.39a.303.303 0 01-.18-.051.37.37 0 01-.116-.138.676.676 0 01-.062-.195 1.353 1.353 0 010-.447.653.653 0 01.062-.194.391.391 0 01.116-.138.295.295 0 01.18-.054c.073 0 .133.018.182.054.05.035.088.081.118.138.029.056.05.12.061.194a1.387 1.387 0 010 .447.676.676 0 01-.061.195.365.365 0 01-.118.138.31.31 0 01-.182.051zm1.522.342V47.85c0-.093.011-.168.033-.226a.369.369 0 01.08-.132.267.267 0 01.176-.079c.068 0 .12.014.155.042a.23.23 0 01.075.112.561.561 0 01.025.153c.002.055.003.11.003.167v1.066h.428v-1.059c0-.058.003-.117.01-.174a.512.512 0 01.042-.155.288.288 0 01.087-.11.235.235 0 01.146-.042c.06 0 .108.012.143.037a.23.23 0 01.08.099.45.45 0 01.033.147c.004.056.006.116.006.18v1.077H54V47.68a1.03 1.03 0 00-.042-.314.556.556 0 00-.117-.212.441.441 0 00-.18-.117.689.689 0 00-.23-.037.435.435 0 00-.28.096.746.746 0 00-.189.22.439.439 0 00-.185-.246.531.531 0 00-.54.01.675.675 0 00-.204.229h-.006v-.258h-.403v1.901h.427z" fill="#FFF" fill-rule="nonzero"/><g fill="#4C4C4E"><path d="M43.346 44.757v1.878h.912v1.142h-.908v1.983c-.01.14.008.282.053.416a.292.292 0 00.284.157c.176-.012.348-.052.51-.118l.398 1.236c-.465.117-.94.19-1.419.218a1.805 1.805 0 01-.908-.18 1.09 1.09 0 01-.432-.549 3.699 3.699 0 01-.138-1.194v-1.969h-.61v-1.142h.61v-1.878h1.648zM36.176 49.124a2.656 2.656 0 01.667-1.857 2.608 2.608 0 011.902-.727 2.6 2.6 0 011.846.856c.365.493.552 1.092.532 1.7a2.66 2.66 0 01-.66 1.862 2.64 2.64 0 01-3.5.121 2.568 2.568 0 01-.787-1.955m1.656 0c-.02.425.06.849.23 1.24.131.194.352.311.59.312a.692.692 0 00.585-.309c.172-.399.25-.83.227-1.263a2.002 2.002 0 00-.23-1.066.688.688 0 00-.572-.313.713.713 0 00-.596.32 2.047 2.047 0 00-.234 1.08"/><path fill-rule="nonzero" d="M34.368 44.764h1.493v6.791h-1.493z"/><path d="M32.712 51.569a2.086 2.086 0 01-.12-.289 2.262 2.262 0 01-.06-.312 2.12 2.12 0 01-.643.51c-.32.142-.667.212-1.017.205a1.57 1.57 0 01-1.17-.406 1.373 1.373 0 01-.401-1.007 1.43 1.43 0 01.287-.92 1.843 1.843 0 011.064-.541c.62-.143 1.028-.24 1.213-.289.276-.073.436-.08.556-.267a.343.343 0 00-.103-.455.647.647 0 00-.446-.139.894.894 0 00-.578.136c-.23.18-.153.444-.383.444h-1.479c.02-.324.107-.64.255-.93.125-.19.29-.35.483-.472a1.84 1.84 0 01.624-.223c.283-.054.572-.08.861-.08.4-.007.799.024 1.192.094.285.055.547.193.751.396.158.168.272.37.334.59.078.236.118.482.12.73v3.218l-1.34.007zm-.277-2.333a8.04 8.04 0 01-.709.246c-.233.05-.45.153-.635.302a.498.498 0 00-.138.347.47.47 0 00.149.374.492.492 0 00.387.13.947.947 0 00.514-.153.857.857 0 00.337-.375c.072-.183.105-.377.099-.573l-.004-.298zM29.056 50.17a1.93 1.93 0 01-.929 1.183 2.909 2.909 0 01-1.51.323 2.802 2.802 0 01-1.348-.274 2.138 2.138 0 01-.812-.878 2.92 2.92 0 01-.323-1.41 2.679 2.679 0 01.646-1.868 2.283 2.283 0 011.773-.715 2.862 2.862 0 011.46.32c.363.218.647.542.813.926.205.502.3 1.04.28 1.58v.215h-3.309c.011.24.086.474.217.677a.74.74 0 00.592.368c.578 0 .798-.218.9-.52l1.55.072zm-1.613-1.563c0-.26-.091-.513-.26-.715a.684.684 0 00-.549-.236.712.712 0 00-.627.347 1.15 1.15 0 00-.188.597l1.624.007z"/><path d="M19.638 44.767h1.45v3.896l1.873-2.017h1.723l-1.73 1.815 1.709 3.111h-1.699l-1.053-2.062-.858.916v1.146h-1.415zM17.993 51.569a1.806 1.806 0 01-.124-.289 2.384 2.384 0 01-.057-.312 2.12 2.12 0 01-.646.51c-.319.142-.667.212-1.017.205a1.58 1.58 0 01-1.17-.406 1.397 1.397 0 01-.401-1.007 1.43 1.43 0 01.287-.92 1.843 1.843 0 011.064-.541c.617-.143 1.025-.24 1.213-.289.273-.073.432-.08.556-.267a.343.343 0 00-.106-.455.644.644 0 00-.447-.139.88.88 0 00-.574.136c-.234.18-.153.444-.383.444h-1.482c.023-.323.11-.64.255-.93a1.6 1.6 0 01.486-.472c.192-.112.403-.188.624-.223.282-.054.57-.08.858-.08.4-.008.798.024 1.191.094.528.092.953.477 1.085.986.08.236.121.481.124.73v3.221l-1.336.004zm-.277-2.333a8.46 8.46 0 01-.71.246 1.481 1.481 0 00-.634.302.498.498 0 00-.138.347c0 .128.048.252.135.347.107.1.253.15.4.14a.947.947 0 00.514-.153.846.846 0 00.334-.375c.074-.182.108-.378.1-.573v-.281zM13.27 44.757v1.875h.91v1.142h-.91v1.982c-.01.141.007.283.053.417a.296.296 0 00.283.156c.176-.01.349-.05.51-.118l.398 1.236c-.464.118-.94.191-1.418.219a1.805 1.805 0 01-.908-.18 1.09 1.09 0 01-.433-.55 3.699 3.699 0 01-.138-1.194v-1.968H11v-1.142h.61v-1.875h1.66z"/></g><g filter="url(#a)" transform="translate(21)"><circle fill="#0B79BF" cx="13" cy="13" r="13"/><path d="M7.402 12.989c-.324-.013-.577-.25-.559-.53v-.004a5.749 5.749 0 01.648-2.284c.777-1.471 2.124-2.537 3.715-3.349.924-.472 1.938-.736 2.957-1.008.066-.018.13-.03.193-.043V4.603c0-.426.583-.655.956-.374l3.648 2.737a.453.453 0 010 .75l-3.648 2.737c-.373.28-.956.052-.956-.374v-.904a2.1 2.1 0 00-.033.001c-1.185.022-2.412.254-3.459.742-1.24.579-2.177 1.584-2.609 2.734-.081.217-.325.358-.589.347l-.264-.01zM18.598 13.011c.324.013.577.25.559.53v.004a5.749 5.749 0 01-.648 2.284c-.777 1.471-2.124 2.537-3.715 3.349-.924.472-1.938.736-2.957 1.008-.066.018-.13.03-.193.043v1.168c0 .426-.583.655-.956.374L7.04 19.034a.453.453 0 010-.75l3.648-2.737c.373-.28.956-.052.956.374v.904l.033-.001c1.185-.022 2.412-.254 3.459-.742 1.24-.579 2.177-1.584 2.609-2.734.081-.217.325-.358.589-.347l.264.01z" fill="#FFF" fill-rule="nonzero"/></g></g></svg>