<svg width="150" height="150" xmlns="http://www.w3.org/2000/svg" xmlns:xlink="http://www.w3.org/1999/xlink"><defs><circle id="a" cx="75" cy="75" r="75"/><path d="M53.61 18.204a1.354 1.354 0 0 0-1.246-.824H35.846L28.086.78a1.354 1.354 0 0 0-2.453 0l-7.76 16.6H1.353a1.354 1.354 0 0 0-.974 2.294L12.61 32.36 7.692 52.035a1.354 1.354 0 0 0 1.986 1.505l17.181-9.818L44.04 53.54a1.349 1.349 0 0 0 1.49-.097c.433-.327.628-.881.496-1.408L41.107 32.36 53.34 19.674c.377-.391.484-.97.272-1.47Z" id="c"/></defs><g fill="none" fill-rule="evenodd"><mask id="b" fill="#fff"><use xlink:href="#a"/></mask><use fill="#ECF5FA" xlink:href="#a"/><path fill-opacity=".05" fill="#0B79BF" fill-rule="nonzero" mask="url(#b)" d="M0 75h150v73.529H0z"/><path d="M54.168 122.7c-3.073.225-6.086-.97-8.256-3.272l-14.867-15.691H5.71C3.963 99.52 2.761 96.15 2.103 93.624 1.445 91.098.844 87.194.3 81.91h33.224c5.613.016 10.993 2.365 14.97 6.536L61.26 101.85a4.667 4.667 0 0 1 1.247 3.417 4.62 4.62 0 0 1-1.557 3.273c-1.78 1.46-4.32 1.273-5.888-.435l-6.138-6.427a1.38 1.38 0 0 0-1.114-.435 1.405 1.405 0 0 0-1.038.607c-.4.622-.316 1.457.198 1.977l7.05 7.424c1.02 1.073 2.426 1.637 3.866 1.55h15.95c2.456-.163 4.572 2.372 4.572 4.922s-1.71 4.814-4.166 4.976H54.168Z" fill="#DDAD78" fill-rule="nonzero"/><g transform="translate(58.725 31.725)"><mask id="d" fill="#fff"><use xlink:href="#c"/></mask><use fill="#FFD258" xlink:href="#c"/><path d="M65.793 17.456c0 31.478-41.771 52.247-54.484 57.764-2.18.973-5.085.973-7.628 0-5.812-2.272-16.708-7.788-27.605-15.577h.363c34.507 0 62.112-24.988 62.112-55.492 0-5.517-1.09-11.034-2.906-16.226 17.072.324 30.148 13.305 30.148 29.53Z" fill="#FFBD0A" mask="url(#d)"/></g></g></svg>